<?xml version="1.0" encoding="iso-8859-1"?>
<!-- Generator: Adobe Illustrator 16.0.0, SVG Export Plug-In . SVG Version: 6.00 Build 0)  -->
<!DOCTYPE svg PUBLIC "-//W3C//DTD SVG 1.1//EN" "http://www.w3.org/Graphics/SVG/1.1/DTD/svg11.dtd">
<svg version="1.1" id="Capa_1" xmlns="http://www.w3.org/2000/svg" xmlns:xlink="http://www.w3.org/1999/xlink" x="0px" y="0px"
	 width="936.092px" height="936.092px" viewBox="0 0 936.092 936.092" style="enable-background:new 0 0 936.092 936.092;"
	 xml:space="preserve">
<g>
	<path d="M789.012,299.11c-20.625-20.38-53.866-20.181-74.245,0.445c-20.379,20.625-20.18,53.865,0.445,74.244l42.25,41.747H520.546
		V178.63l41.747,42.25c20.38,20.626,53.62,20.826,74.245,0.445c20.625-20.379,20.825-53.619,0.445-74.244L507.072,15.601
		c-9.787-9.905-23.107-15.516-37.03-15.6C469.936,0,469.832,0,469.726,0c-13.81,0-27.069,5.442-36.898,15.155L299.554,146.839
		c-20.625,20.379-20.824,53.619-0.445,74.244c10.271,10.395,23.806,15.601,37.348,15.601c13.33,0,26.667-5.046,36.897-15.155
		l42.192-41.689v235.707H178.629l42.25-41.746c20.625-20.379,20.824-53.62,0.445-74.245c-20.379-20.625-53.62-20.825-74.245-0.445
		L15.601,429.022c-9.904,9.786-15.516,23.105-15.599,37.03c-0.083,13.922,5.368,27.309,15.154,37.213l131.683,133.271
		c10.271,10.395,23.805,15.602,37.347,15.602c13.33,0,26.667-5.047,36.898-15.156c20.625-20.379,20.824-53.619,0.445-74.244
		l-41.689-42.191h235.707v235.707l-42.192-41.688c-20.625-20.381-53.864-20.182-74.245,0.445
		c-20.379,20.625-20.18,53.863,0.445,74.242l133.272,131.684c9.83,9.713,23.089,15.154,36.898,15.154c0.104,0,0.211,0,0.315,0
		c13.923-0.084,27.244-5.695,37.03-15.602l129.911-131.479c20.38-20.625,20.181-53.865-0.444-74.244
		c-20.626-20.381-53.866-20.182-74.245,0.445l-41.747,42.25V520.547h235.707l-41.689,42.191
		c-20.379,20.625-20.18,53.865,0.445,74.244c10.232,10.111,23.567,15.156,36.898,15.156c13.541,0,27.077-5.207,37.347-15.602
		l131.683-133.271c9.786-9.904,15.237-23.291,15.154-37.213c-0.083-13.925-5.695-27.244-15.599-37.03L789.012,299.11z"/>
</g>
<g>
</g>
<g>
</g>
<g>
</g>
<g>
</g>
<g>
</g>
<g>
</g>
<g>
</g>
<g>
</g>
<g>
</g>
<g>
</g>
<g>
</g>
<g>
</g>
<g>
</g>
<g>
</g>
<g>
</g>
</svg>
